<?xml version="1.0" encoding="utf-8"?>
<!-- Generator: Adobe Illustrator 26.0.3, SVG Export Plug-In . SVG Version: 6.00 Build 0)  -->
<svg version="1.1" id="Laag_1" xmlns="http://www.w3.org/2000/svg" xmlns:xlink="http://www.w3.org/1999/xlink" x="0px" y="0px"
	 viewBox="0 0 1280 1080" style="enable-background:new 0 0 1280 1080;" xml:space="preserve">
<style type="text/css">
	.st0{fill:#005DFF;stroke:#000000;stroke-width:4;stroke-miterlimit:10;}
	.st1{fill:#FFFFFF;stroke:#000000;stroke-miterlimit:10;}
	.st2{opacity:0.26;fill:#FFFFFF;stroke:#000000;stroke-width:5;stroke-miterlimit:10;}
</style>
<polygon class="st0" points="694.89,776.51 335.54,683.07 236.8,325.15 497.39,60.67 856.73,154.11 955.48,512.04 "/>
<g>
	<g>
		<path class="st1" d="M414.41,235.43c14.46-3.1,42.42-2.88,75.8,5.82c77.16,20.11,122.3,84.01,98.86,173.94
			c-22.41,85.97-95.42,128.6-180.45,106.44c-33.84-8.82-53.81-21.69-61.86-28.99l16.22-26.53c11.66,9.8,29.4,19.71,52.17,25.64
			c64.33,16.77,117.56-13.24,136.3-85.17c17.47-67.02-9.99-119.91-76.34-137.2c-21.76-5.67-44.8-7-60.95-3.89L414.41,235.43z"/>
	</g>
</g>
<g>
	<g>
		<path class="st1" d="M644.29,300.38l35.35,9.21l-34.42,132.04l1.27,0.33c9.96-8.74,20.04-16.33,29.21-23.47l110.5-81.11
			l43.81,11.42l-129.4,90.61l65.86,185.36l-41.95-10.94l-54.98-157.82l-34.11,23.18l-27.19,104.32l-35.35-9.21L644.29,300.38z"/>
	</g>
</g>
<polygon class="st2" points="688.87,753.16 352.87,665.79 260.54,331.12 504.2,83.82 840.21,171.19 932.54,505.86 "/>
</svg>
